<?xml version="1.0" standalone="no"?>
<!DOCTYPE svg PUBLIC "-//W3C//DTD SVG 20010904//EN"
 "http://www.w3.org/TR/2001/REC-SVG-20010904/DTD/svg10.dtd">
<svg version="1.0" xmlns="http://www.w3.org/2000/svg"
 width="956.000000pt" height="939.000000pt" viewBox="0 0 956.000000 939.000000"
 preserveAspectRatio="xMidYMid meet">

<g transform="translate(0.000000,939.000000) scale(0.100000,-0.100000)"
fill="#000000" stroke="none">
<path d="M3996 8629 c-109 -11 -236 -40 -317 -74 -34 -15 -63 -24 -66 -22 -2
3 10 21 27 41 37 42 34 44 -23 15 -178 -91 -303 -216 -330 -330 -6 -24 -12
-27 -70 -32 -122 -11 -316 -108 -407 -202 l-45 -47 52 26 c29 14 55 26 59 26
3 0 -18 -26 -47 -58 -89 -95 -149 -233 -149 -337 l0 -40 21 25 c13 16 19 19
15 8 -19 -59 -57 -273 -67 -374 -26 -264 14 -618 106 -941 19 -67 35 -125 35
-128 0 -3 -18 -5 -41 -5 -50 0 -90 -22 -115 -64 -16 -27 -19 -51 -19 -181 1
-164 -6 -136 84 -355 16 -41 46 -132 65 -202 61 -222 118 -333 196 -386 22
-15 42 -21 55 -17 11 3 26 7 33 8 9 1 26 -47 52 -148 43 -168 61 -214 150
-400 63 -130 63 -130 68 -235 4 -98 -11 -348 -24 -397 -4 -14 -30 -35 -73 -59
-103 -56 -167 -107 -281 -224 -117 -119 -138 -132 -380 -235 -436 -185 -801
-323 -1249 -471 -486 -161 -720 -279 -907 -456 -179 -170 -262 -350 -328 -708
-44 -245 -66 -660 -66 -1297 l0 -353 4389 0 4389 0 8 268 c5 147 8 485 8 752
l0 485 -27 120 c-57 251 -156 501 -262 665 -64 99 -194 226 -270 267 -33 17
-127 58 -210 91 -82 33 -298 120 -480 194 -733 300 -984 399 -1250 495 -99 35
-200 76 -225 90 -25 14 -121 103 -215 198 -127 128 -184 179 -227 201 -54 27
-58 32 -68 77 -12 56 -12 270 0 342 4 28 33 106 65 175 68 149 135 345 167
492 12 60 27 108 31 108 5 0 20 -9 34 -20 35 -27 56 -25 96 9 83 74 173 316
217 591 19 117 46 215 95 349 20 57 25 84 21 115 -14 86 -67 132 -146 124 -22
-2 -40 -3 -40 -1 0 1 13 57 30 124 44 179 60 321 61 509 0 244 -28 405 -107
618 -192 520 -502 842 -951 988 -258 83 -697 153 -978 155 -191 1 24 37 242
41 l108 1 -105 7 c-140 10 -305 9 -414 -1z"/>
</g>
</svg>
